<mxfile host="app.diagrams.net" agent="Mozilla/5.0 (Windows NT 10.0; Win64; x64) AppleWebKit/537.36 (KHTML, like Gecko) Chrome/127.0.0.0 Safari/537.36" version="24.7.6">
  <diagram name="Página-1" id="PEnhn5YQ3_4kKDI7UTQ6">
    <mxGraphModel dx="2261" dy="780" grid="1" gridSize="10" guides="1" tooltips="1" connect="1" arrows="1" fold="1" page="1" pageScale="1" pageWidth="827" pageHeight="1169" math="0" shadow="0">
      <root>
        <mxCell id="0" />
        <mxCell id="1" parent="0" />
        <mxCell id="X_h3tfcrSANy221jNuZs-1" value="CLIENTE" style="rounded=0;whiteSpace=wrap;html=1;" vertex="1" parent="1">
          <mxGeometry x="100" y="130" width="200" height="120" as="geometry" />
        </mxCell>
        <mxCell id="X_h3tfcrSANy221jNuZs-3" value="VEÍCULO" style="rounded=0;whiteSpace=wrap;html=1;" vertex="1" parent="1">
          <mxGeometry x="100" y="430" width="200" height="120" as="geometry" />
        </mxCell>
        <mxCell id="X_h3tfcrSANy221jNuZs-24" style="edgeStyle=orthogonalEdgeStyle;rounded=0;orthogonalLoop=1;jettySize=auto;html=1;" edge="1" parent="1" source="X_h3tfcrSANy221jNuZs-4">
          <mxGeometry relative="1" as="geometry">
            <mxPoint x="310" y="140" as="targetPoint" />
          </mxGeometry>
        </mxCell>
        <mxCell id="X_h3tfcrSANy221jNuZs-4" value="CPF" style="ellipse;whiteSpace=wrap;html=1;" vertex="1" parent="1">
          <mxGeometry x="370" y="120" width="90" height="40" as="geometry" />
        </mxCell>
        <mxCell id="X_h3tfcrSANy221jNuZs-25" style="edgeStyle=orthogonalEdgeStyle;rounded=0;orthogonalLoop=1;jettySize=auto;html=1;" edge="1" parent="1" source="X_h3tfcrSANy221jNuZs-5">
          <mxGeometry relative="1" as="geometry">
            <mxPoint x="310" y="190" as="targetPoint" />
          </mxGeometry>
        </mxCell>
        <mxCell id="X_h3tfcrSANy221jNuZs-5" value="NOME" style="ellipse;whiteSpace=wrap;html=1;" vertex="1" parent="1">
          <mxGeometry x="370" y="170" width="90" height="40" as="geometry" />
        </mxCell>
        <mxCell id="X_h3tfcrSANy221jNuZs-26" style="edgeStyle=orthogonalEdgeStyle;rounded=0;orthogonalLoop=1;jettySize=auto;html=1;" edge="1" parent="1" source="X_h3tfcrSANy221jNuZs-6">
          <mxGeometry relative="1" as="geometry">
            <mxPoint x="310" y="240" as="targetPoint" />
          </mxGeometry>
        </mxCell>
        <mxCell id="X_h3tfcrSANy221jNuZs-6" value="DATA NASCIMENTO" style="ellipse;whiteSpace=wrap;html=1;" vertex="1" parent="1">
          <mxGeometry x="370" y="220" width="90" height="40" as="geometry" />
        </mxCell>
        <mxCell id="X_h3tfcrSANy221jNuZs-33" style="edgeStyle=orthogonalEdgeStyle;rounded=0;orthogonalLoop=1;jettySize=auto;html=1;" edge="1" parent="1" source="X_h3tfcrSANy221jNuZs-7">
          <mxGeometry relative="1" as="geometry">
            <mxPoint x="120" y="120" as="targetPoint" />
          </mxGeometry>
        </mxCell>
        <mxCell id="X_h3tfcrSANy221jNuZs-7" value="ENDEREÇO" style="ellipse;whiteSpace=wrap;html=1;" vertex="1" parent="1">
          <mxGeometry x="20" y="10" width="90" height="40" as="geometry" />
        </mxCell>
        <mxCell id="X_h3tfcrSANy221jNuZs-32" style="edgeStyle=orthogonalEdgeStyle;rounded=0;orthogonalLoop=1;jettySize=auto;html=1;" edge="1" parent="1" source="X_h3tfcrSANy221jNuZs-8">
          <mxGeometry relative="1" as="geometry">
            <mxPoint x="205" y="120" as="targetPoint" />
          </mxGeometry>
        </mxCell>
        <mxCell id="X_h3tfcrSANy221jNuZs-8" value="TELEFONE" style="ellipse;whiteSpace=wrap;html=1;" vertex="1" parent="1">
          <mxGeometry x="160" y="10" width="90" height="40" as="geometry" />
        </mxCell>
        <mxCell id="X_h3tfcrSANy221jNuZs-31" style="edgeStyle=orthogonalEdgeStyle;rounded=0;orthogonalLoop=1;jettySize=auto;html=1;" edge="1" parent="1" source="X_h3tfcrSANy221jNuZs-9">
          <mxGeometry relative="1" as="geometry">
            <mxPoint x="280" y="120" as="targetPoint" />
          </mxGeometry>
        </mxCell>
        <mxCell id="X_h3tfcrSANy221jNuZs-9" value="CATEGORIA" style="ellipse;whiteSpace=wrap;html=1;" vertex="1" parent="1">
          <mxGeometry x="300" y="10" width="90" height="40" as="geometry" />
        </mxCell>
        <mxCell id="X_h3tfcrSANy221jNuZs-10" value="PLACA" style="ellipse;whiteSpace=wrap;html=1;" vertex="1" parent="1">
          <mxGeometry x="370" y="420" width="90" height="40" as="geometry" />
        </mxCell>
        <mxCell id="X_h3tfcrSANy221jNuZs-22" style="edgeStyle=orthogonalEdgeStyle;rounded=0;orthogonalLoop=1;jettySize=auto;html=1;entryX=1;entryY=0.5;entryDx=0;entryDy=0;" edge="1" parent="1" source="X_h3tfcrSANy221jNuZs-11" target="X_h3tfcrSANy221jNuZs-3">
          <mxGeometry relative="1" as="geometry" />
        </mxCell>
        <mxCell id="X_h3tfcrSANy221jNuZs-11" value="MODELO" style="ellipse;whiteSpace=wrap;html=1;" vertex="1" parent="1">
          <mxGeometry x="370" y="470" width="90" height="40" as="geometry" />
        </mxCell>
        <mxCell id="X_h3tfcrSANy221jNuZs-12" value="MARCA" style="ellipse;whiteSpace=wrap;html=1;" vertex="1" parent="1">
          <mxGeometry x="370" y="520" width="90" height="40" as="geometry" />
        </mxCell>
        <mxCell id="X_h3tfcrSANy221jNuZs-34" style="edgeStyle=orthogonalEdgeStyle;rounded=0;orthogonalLoop=1;jettySize=auto;html=1;" edge="1" parent="1" source="X_h3tfcrSANy221jNuZs-13">
          <mxGeometry relative="1" as="geometry">
            <mxPoint x="90" y="500" as="targetPoint" />
          </mxGeometry>
        </mxCell>
        <mxCell id="X_h3tfcrSANy221jNuZs-13" value="COR" style="ellipse;whiteSpace=wrap;html=1;" vertex="1" parent="1">
          <mxGeometry x="-50" y="480" width="90" height="40" as="geometry" />
        </mxCell>
        <mxCell id="X_h3tfcrSANy221jNuZs-14" value="ANO" style="ellipse;whiteSpace=wrap;html=1;" vertex="1" parent="1">
          <mxGeometry x="324" y="610" width="90" height="40" as="geometry" />
        </mxCell>
        <mxCell id="X_h3tfcrSANy221jNuZs-36" style="edgeStyle=orthogonalEdgeStyle;rounded=0;orthogonalLoop=1;jettySize=auto;html=1;" edge="1" parent="1" source="X_h3tfcrSANy221jNuZs-15">
          <mxGeometry relative="1" as="geometry">
            <mxPoint x="235" y="560" as="targetPoint" />
          </mxGeometry>
        </mxCell>
        <mxCell id="X_h3tfcrSANy221jNuZs-15" value="TIPO" style="ellipse;whiteSpace=wrap;html=1;" vertex="1" parent="1">
          <mxGeometry x="190" y="620" width="90" height="40" as="geometry" />
        </mxCell>
        <mxCell id="X_h3tfcrSANy221jNuZs-35" style="edgeStyle=orthogonalEdgeStyle;rounded=0;orthogonalLoop=1;jettySize=auto;html=1;" edge="1" parent="1" source="X_h3tfcrSANy221jNuZs-16">
          <mxGeometry relative="1" as="geometry">
            <mxPoint x="110" y="560" as="targetPoint" />
          </mxGeometry>
        </mxCell>
        <mxCell id="X_h3tfcrSANy221jNuZs-16" value="DISPONIBILIDADE" style="ellipse;whiteSpace=wrap;html=1;" vertex="1" parent="1">
          <mxGeometry x="20" y="620" width="130" height="40" as="geometry" />
        </mxCell>
        <mxCell id="X_h3tfcrSANy221jNuZs-21" style="edgeStyle=orthogonalEdgeStyle;rounded=0;orthogonalLoop=1;jettySize=auto;html=1;entryX=1;entryY=0.125;entryDx=0;entryDy=0;entryPerimeter=0;" edge="1" parent="1" source="X_h3tfcrSANy221jNuZs-10" target="X_h3tfcrSANy221jNuZs-3">
          <mxGeometry relative="1" as="geometry" />
        </mxCell>
        <mxCell id="X_h3tfcrSANy221jNuZs-23" style="edgeStyle=orthogonalEdgeStyle;rounded=0;orthogonalLoop=1;jettySize=auto;html=1;entryX=1.005;entryY=0.825;entryDx=0;entryDy=0;entryPerimeter=0;" edge="1" parent="1" source="X_h3tfcrSANy221jNuZs-12" target="X_h3tfcrSANy221jNuZs-3">
          <mxGeometry relative="1" as="geometry" />
        </mxCell>
        <mxCell id="X_h3tfcrSANy221jNuZs-37" style="edgeStyle=orthogonalEdgeStyle;rounded=0;orthogonalLoop=1;jettySize=auto;html=1;entryX=0.95;entryY=0.975;entryDx=0;entryDy=0;entryPerimeter=0;" edge="1" parent="1" source="X_h3tfcrSANy221jNuZs-14" target="X_h3tfcrSANy221jNuZs-3">
          <mxGeometry relative="1" as="geometry" />
        </mxCell>
      </root>
    </mxGraphModel>
  </diagram>
</mxfile>
